<?xml version="1.0" encoding="UTF-8" standalone="no"?>
<svg
   xmlns:dc="http://purl.org/dc/elements/1.1/"
   xmlns:cc="http://creativecommons.org/ns#"
   xmlns:rdf="http://www.w3.org/1999/02/22-rdf-syntax-ns#"
   xmlns:svg="http://www.w3.org/2000/svg"
   xmlns="http://www.w3.org/2000/svg"
   xmlns:sodipodi="http://sodipodi.sourceforge.net/DTD/sodipodi-0.dtd"
   xmlns:inkscape="http://www.inkscape.org/namespaces/inkscape"
   width="2048"
   height="1792"
   viewBox="0 0 2048 1792"
   id="svg2"
   version="1.1"
   inkscape:version="0.47 r22583"
   sodipodi:docname="chart_baseline.svg">
  <metadata
     id="metadata10">
    <rdf:RDF>
      <cc:Work
         rdf:about="">
        <dc:format>image/svg+xml</dc:format>
        <dc:type
           rdf:resource="http://purl.org/dc/dcmitype/StillImage" />
        <dc:title />
      </cc:Work>
    </rdf:RDF>
  </metadata>
  <defs
     id="defs8">
    <inkscape:perspective
       sodipodi:type="inkscape:persp3d"
       inkscape:vp_x="0 : 896 : 1"
       inkscape:vp_y="0 : 1000 : 0"
       inkscape:vp_z="2048 : 896 : 1"
       inkscape:persp3d-origin="1024 : 597.33333 : 1"
       id="perspective12" />
    <inkscape:perspective
       id="perspective2830"
       inkscape:persp3d-origin="0.5 : 0.33333333 : 1"
       inkscape:vp_z="1 : 0.5 : 1"
       inkscape:vp_y="0 : 1000 : 0"
       inkscape:vp_x="0 : 0.5 : 1"
       sodipodi:type="inkscape:persp3d" />
    <inkscape:perspective
       id="perspective2858"
       inkscape:persp3d-origin="0.5 : 0.33333333 : 1"
       inkscape:vp_z="1 : 0.5 : 1"
       inkscape:vp_y="0 : 1000 : 0"
       inkscape:vp_x="0 : 0.5 : 1"
       sodipodi:type="inkscape:persp3d" />
    <inkscape:perspective
       id="perspective2858-6"
       inkscape:persp3d-origin="0.5 : 0.33333333 : 1"
       inkscape:vp_z="1 : 0.5 : 1"
       inkscape:vp_y="0 : 1000 : 0"
       inkscape:vp_x="0 : 0.5 : 1"
       sodipodi:type="inkscape:persp3d" />
    <inkscape:perspective
       id="perspective2858-3"
       inkscape:persp3d-origin="0.5 : 0.33333333 : 1"
       inkscape:vp_z="1 : 0.5 : 1"
       inkscape:vp_y="0 : 1000 : 0"
       inkscape:vp_x="0 : 0.5 : 1"
       sodipodi:type="inkscape:persp3d" />
    <inkscape:perspective
       id="perspective3670"
       inkscape:persp3d-origin="0.5 : 0.33333333 : 1"
       inkscape:vp_z="1 : 0.5 : 1"
       inkscape:vp_y="0 : 1000 : 0"
       inkscape:vp_x="0 : 0.5 : 1"
       sodipodi:type="inkscape:persp3d" />
    <inkscape:perspective
       id="perspective3670-4"
       inkscape:persp3d-origin="0.5 : 0.33333333 : 1"
       inkscape:vp_z="1 : 0.5 : 1"
       inkscape:vp_y="0 : 1000 : 0"
       inkscape:vp_x="0 : 0.5 : 1"
       sodipodi:type="inkscape:persp3d" />
    <inkscape:perspective
       id="perspective3701"
       inkscape:persp3d-origin="0.5 : 0.33333333 : 1"
       inkscape:vp_z="1 : 0.5 : 1"
       inkscape:vp_y="0 : 1000 : 0"
       inkscape:vp_x="0 : 0.5 : 1"
       sodipodi:type="inkscape:persp3d" />
    <inkscape:perspective
       id="perspective2954"
       inkscape:persp3d-origin="0.5 : 0.33333333 : 1"
       inkscape:vp_z="1 : 0.5 : 1"
       inkscape:vp_y="0 : 1000 : 0"
       inkscape:vp_x="0 : 0.5 : 1"
       sodipodi:type="inkscape:persp3d" />
    <inkscape:perspective
       id="perspective2954-7"
       inkscape:persp3d-origin="0.5 : 0.33333333 : 1"
       inkscape:vp_z="1 : 0.5 : 1"
       inkscape:vp_y="0 : 1000 : 0"
       inkscape:vp_x="0 : 0.5 : 1"
       sodipodi:type="inkscape:persp3d" />
    <inkscape:perspective
       id="perspective2954-0"
       inkscape:persp3d-origin="0.5 : 0.33333333 : 1"
       inkscape:vp_z="1 : 0.5 : 1"
       inkscape:vp_y="0 : 1000 : 0"
       inkscape:vp_x="0 : 0.5 : 1"
       sodipodi:type="inkscape:persp3d" />
    <inkscape:perspective
       id="perspective2954-3"
       inkscape:persp3d-origin="0.5 : 0.33333333 : 1"
       inkscape:vp_z="1 : 0.5 : 1"
       inkscape:vp_y="0 : 1000 : 0"
       inkscape:vp_x="0 : 0.5 : 1"
       sodipodi:type="inkscape:persp3d" />
  </defs>
  <sodipodi:namedview
     pagecolor="#ffffff"
     bordercolor="#666666"
     borderopacity="1"
     objecttolerance="10"
     gridtolerance="10"
     guidetolerance="10"
     inkscape:pageopacity="0"
     inkscape:pageshadow="2"
     inkscape:window-width="1156"
     inkscape:window-height="925"
     id="namedview6"
     showgrid="false"
     inkscape:zoom="0.4956144"
     inkscape:cx="1557.6906"
     inkscape:cy="727.30994"
     inkscape:window-x="306"
     inkscape:window-y="38"
     inkscape:window-maximized="0"
     inkscape:current-layer="svg2" />
  <path
     d="m 0,128 0,1536 2048,0 0,-128 -1920,0 0,-1408 -128,0 z"
     id="path4"
     sodipodi:nodetypes="ccccccc" />
  <path
     style="font-size:medium;font-style:normal;font-variant:normal;font-weight:normal;font-stretch:normal;text-indent:0;text-align:start;text-decoration:none;line-height:normal;letter-spacing:normal;word-spacing:normal;text-transform:none;direction:ltr;block-progression:tb;writing-mode:lr-tb;text-anchor:start;color:#000000;fill:#000000;fill-opacity:1;stroke:none;stroke-width:100;marker:none;visibility:visible;display:inline;overflow:visible;enable-background:accumulate;font-family:Bitstream Vera Sans;-inkscape-font-specification:Bitstream Vera Sans"
     d="m 1120.1562,596.6875 -0.4687,0.0312 -0.5,0 -6.1875,0.15625 -0.5,0.0312 -0.5,0 -6.3125,0.3125 -0.5,0 -0.5313,0.0312 -6.2187,0.4375 -0.5313,0.0312 -0.5312,0.0312 -1.5938,0.15625 8.8126,99.625 0.5312,-0.0625 0.375,-0.0312 4.8125,-0.34375 0.375,-0.0312 4.9375,-0.21875 0.6875,-0.0312 0.3125,0 5.1562,-0.125 4.125,-0.0312 0.25,0 0.75,0 3.9688,0.0625 0.9688,0.0312 0.031,0 3.8438,0.125 4.7187,0.25 0.2813,0.0312 0.7812,0.0312 3.5312,0.25 0.5313,0.0625 0.5625,0.0312 4.4062,0.46875 0.094,0 3.3125,0.40625 4.3125,0.59375 0.1875,0.0312 5.125,0.84375 2.9687,0.5625 0.1563,0.0312 3.8437,0.8125 0.2188,0.0625 3.6875,0.84375 0.3437,0.0937 3.5,0.90625 0.625,0.1875 0.5,0.125 2.625,0.75 0.6563,0.21875 0.4687,0.125 3.6876,1.1875 2.4374,0.8125 0.75,0.28125 0.375,0.125 3.0313,1.125 0.5,0.1875 2.3125,0.9375 0.7188,0.3125 0.4062,0.15625 2.2812,0.96875 0.1876,0.0937 4.1562,1.875 0.094,0.0312 2.1874,1.0625 0.5313,0.28125 0.5313,0.25 3.2187,1.65625 2.1563,1.15625 0.5624,0.34375 0.4376,0.21875 2.125,1.21875 0.6562,0.40625 0.3438,0.1875 2.0937,1.28125 3.0625,1.9375 0.3438,0.25 0.625,0.375 2.0624,1.375 0.125,0.0937 2.875,2 0.3126,0.21875 0.5624,0.40625 2.9376,2.1875 2.0937,1.59375 0.8125,0.65625 2.0625,1.65625 0.062,0.0625 0.75,0.59375 2.0938,1.75 0.7187,0.625 0.031,0.0312 2.0937,1.8125 0.7187,0.65625 2.0938,1.90625 0.031,0.0312 0.6876,0.625 2.0937,1.96875 0.1875,0.1875 0.5,0.46875 69.9688,-71.4375 -0.6876,-0.65625 -0.3437,-0.34375 -0.3125,-0.3125 -3.5,-3.28125 -0.3438,-0.34375 -0.3437,-0.3125 -3.5313,-3.1875 -0.375,-0.34375 -0.375,-0.3125 -3.5937,-3.15625 -0.375,-0.3125 -0.375,-0.34375 -3.6563,-3.03125 -0.4062,-0.34375 -0.375,-0.3125 -3.7188,-2.96875 -0.4062,-0.34375 -0.4062,-0.3125 -3.7813,-2.90625 -0.4063,-0.3125 -0.4374,-0.3125 -3.8126,-2.8125 -0.4687,-0.34375 -0.4375,-0.3125 -3.875,-2.71875 -0.4688,-0.3125 -0.4687,-0.3125 -3.9375,-2.65625 -0.4688,-0.3125 -0.4687,-0.28125 -4,-2.5625 -0.5,-0.3125 -0.5,-0.28125 -4.0625,-2.46875 -0.5,-0.3125 -0.5,-0.28125 -4.1562,-2.375 -0.5,-0.3125 -0.5313,-0.28125 -4.1875,-2.28125 -0.5312,-0.28125 -0.5313,-0.28125 -4.2813,-2.1875 -0.5312,-0.28125 -0.5312,-0.25 -4.3438,-2.09375 -0.5625,-0.25 -0.5313,-0.25 -4.4374,-2.03125 -0.5313,-0.25 -0.5625,-0.21875 -4.5,-1.90625 -0.5625,-0.25 -0.5625,-0.21875 -4.5625,-1.8125 -0.5625,-0.21875 -0.5938,-0.21875 -4.625,-1.71875 -0.5937,-0.21875 -0.5625,-0.1875 -4.7188,-1.625 -0.5937,-0.1875 -0.5625,-0.1875 -4.8125,-1.5 -0.5625,-0.1875 -0.5938,-0.15625 -4.875,-1.40625 -0.5937,-0.1875 -0.5625,-0.15625 -4.9688,-1.3125 -0.5937,-0.125 -0.5625,-0.15625 -5.0625,-1.1875 -0.5625,-0.15625 -0.5938,-0.125 -5.125,-1.09375 -0.5624,-0.125 -0.5938,-0.0937 -5.2188,-1 -0.5624,-0.0937 -0.5626,-0.0937 -5.3124,-0.875 -0.5626,-0.0937 -0.5624,-0.0937 -5.4063,-0.78125 -0.5625,-0.0625 -0.5625,-0.0625 -5.5,-0.65625 -0.5313,-0.0625 -0.5624,-0.0625 -5.5938,-0.5625 -0.5312,-0.0312 -0.5313,-0.0312 -5.6875,-0.4375 -0.5312,-0.0625 -0.5313,0 -5.7813,-0.34375 -0.5312,-0.0312 -0.5,0 -5.9062,-0.1875 -0.5,-0.0312 -0.5,0 -5.9688,-0.0937 -0.5,0 -0.5,0 z m -140.93745,33.40625 -0.4375,0.1875 -0.4375,0.25 -5.0625,2.53125 -0.40625,0.21875 -0.4375,0.21875 -5,2.65625 -0.40625,0.21875 -0.4375,0.21875 -4.90625,2.75 -0.40625,0.21875 -0.40625,0.25 -4.875,2.8125 -0.40625,0.25 -0.40625,0.21875 -4.8125,2.9375 -0.40625,0.21875 -0.375,0.25 -4.78125,3 -0.375,0.25 -0.375,0.21875 -4.71875,3.09375 -0.34375,0.25 -0.375,0.25 -4.6875,3.1875 -0.34375,0.21875 -0.34375,0.25 -4.625,3.28125 -0.34375,0.21875 -0.34375,0.25 -4.5625,3.34375 -0.34375,0.25 -0.3125,0.25 -4.53125,3.4375 -0.3125,0.21875 -0.3125,0.25 -4.5,3.5 -0.3125,0.25 -0.28125,0.25 -4.4375,3.59375 -0.3125,0.21875 -0.28125,0.25 -4.40625,3.65625 -0.28125,0.25 -0.28125,0.21875 -4.34375,3.75 -0.28125,0.21875 -0.25,0.25 -4.3125,3.8125 -0.28125,0.21875 -0.25,0.25 -4.25,3.875 -0.25,0.21875 -0.25,0.25 -4.25,3.9375 -0.21875,0.21875 -0.25,0.25 -4.1875,4 -0.21875,0.21875 -0.25,0.25 -4.125,4.0625 -0.21875,0.21875 -0.21875,0.21875 -4.125,4.15625 -0.21875,0.21875 -0.1875,0.21875 -4.0625,4.21875 -0.21875,0.21875 -0.1875,0.1875 -4.03125,4.28125 -0.21875,0.21875 -0.1875,0.1875 -4,4.34375 -0.1875,0.1875 -0.1875,0.21875 -3.9375,4.375 -0.1875,0.21875 -0.1875,0.1875 -3.90625,4.4375 -0.1875,0.21875 -0.15625,0.1875 -3.90625,4.5 -0.15625,0.1875 -0.15625,0.1875 -3.875,4.5625 -0.15625,0.1875 -0.15625,0.1875 -3.8125,4.59375 -0.15625,0.1875 -0.15625,0.15625 -3.78125,4.65625 -0.15625,0.1875 -0.125,0.1875 -3.78125,4.6875 -0.125,0.15625 -0.125,0.1875 -3.75,4.75 -0.1875,0.25 -0.1875,0.21875 -6.8125,8.90625 79.34375,60.875 6.4375,-8.40625 0.375,-0.5 3.375,-4.25 -0.0312,0 3.25,-4.03125 0.28125,-0.34375 3.21875,-3.96875 0.0937,-0.125 0.1875,-0.21875 3.21875,-3.875 0.0312,0 3.53125,-4.1875 0.3125,-0.375 3.21875,-3.71875 0.34375,-0.40625 3.25,-3.65625 0.34375,-0.40625 3.21875,-3.5625 0.375,-0.40625 3.25,-3.53125 0.0312,-0.0312 0.34375,-0.375 3.25,-3.4375 0.40625,-0.40625 3.65625,-3.78125 3.25,-3.28125 0.4375,-0.4375 3.21875,-3.1875 0.46875,-0.46875 3.25,-3.09375 3.71875,-3.5 0.5,-0.4375 3.21875,-2.96875 0.4375,-0.40625 0.0937,-0.0625 3.25,-2.84375 0.53125,-0.46875 3.25,-2.78125 3.78125,-3.1875 0.59375,-0.46875 3.25,-2.625 3.84375,-3.03125 0.625,-0.46875 3.25,-2.46875 0.65625,-0.46875 3.21875,-2.375 0.125,-0.0937 0.5625,-0.40625 3.25,-2.28125 0.5625,-0.40625 0.125,-0.0625 3.25,-2.21875 0.71875,-0.46875 3.25,-2.125 0.75,-0.5 3.25,-2.03125 4,-2.4375 4.0625,-2.375 0.1563,-0.0937 0.6562,-0.375 4.125,-2.25 4.125,-2.1875 3.2812,-1.65625 0.1563,-0.0625 0.7187,-0.375 2.4063,-1.15625 L 982.5,628.5 z m 321.71875,183.0625 4.5937,7.84375 0.25,0.4375 0.125,0.21875 4.5938,8.125 -0.031,0 4.9062,8.96875 0.2812,0.53125 4.625,8.6875 0.25,0.46875 4.625,8.96875 0.1876,0.40625 4.6874,9.21875 0.1563,0.34375 4.75,9.46875 0.125,0.28125 4.7187,9.65625 0.125,0.28125 9.7813,20.25 0.094,0.15625 9.9688,20.875 0.031,0.0312 0,0.0312 10.2188,21.25 0.062,0.0937 0.031,0.0937 5.1874,10.71875 0.063,0.0937 0.062,0.0937 5.25,10.71875 0.063,0.125 0.062,0.125 5.3438,10.75 0.094,0.15625 0.062,0.15625 3.2188,6.3125 89.1875,-45.1875 -3.1875,-6.34375 -0.031,0 -5.0626,-10.1875 -0.125,-0.25 -5.0312,-10.28125 -0.094,-0.1875 -5,-10.3125 -0.094,-0.1875 -10.0937,-21 -0.031,-0.0625 -10.0313,-20.9375 -0.031,-0.0937 -0.031,-0.0625 -10,-20.6875 -0.063,-0.125 -0.062,-0.15625 -5,-10.1875 -0.063,-0.125 -0.062,-0.125 -5.0313,-10.09375 -0.062,-0.15625 -0.094,-0.15625 -5.0312,-9.96875 -0.094,-0.1875 -0.094,-0.1875 -5.0937,-9.8125 -0.125,-0.21875 -0.125,-0.25 -5.125,-9.65625 -0.125,-0.28125 -0.1563,-0.25 -5.1875,-9.5 -0.1562,-0.3125 -0.1563,-0.28125 -5.2813,-9.34375 -0.1874,-0.34375 -0.1876,-0.3125 -4.9687,-8.53125 z m -543.84375,47.65625 -0.0937,0.125 -0.0625,0.15625 -6.6875,10.6875 -0.0625,0.0937 -0.0625,0.125 -6.65625,10.71875 -0.0625,0.0937 -0.0312,0.0937 -6.625,10.78125 -0.0312,0.0937 -0.0625,0.0937 -13.125,21.59375 -0.0312,0.0625 -0.0312,0.0312 -13,21.5625 -0.0312,0.0625 -12.875,21.28125 -0.0937,0.15625 -6.34375,10.375 -0.0937,0.15625 -6.3125,10.25 -0.125,0.1875 -6.28125,10.09375 -0.0312,0.0625 -0.125,0.1875 -6.25,9.90625 -0.1875,0.28125 -6.21875,9.7188 -0.21875,0.3437 -6.1875,9.5 -0.25,0.375 -6.375,9.5937 83.25,55.4063 6.625,-9.9687 0.125,-0.1876 0.125,-0.2187 6.6875,-10.2187 0.0937,-0.1563 0.125,-0.1875 6.625,-10.3438 0.0937,-0.1562 0.0937,-0.125 6.59375,-10.4688 0.0625,-0.125 0.0937,-0.125 6.5625,-10.5312 0.0625,-0.094 0.0625,-0.125 6.53125,-10.5937 0.0625,-0.094 0.0312,-0.063 6.53125,-10.6874 0.0312,-0.094 0.0625,-0.062 13.03125,-21.53125 0,-0.0312 0.0312,-0.0312 12.96875,-21.5 0.0625,-0.0937 12.9375,-21.34375 0.125,-0.1875 6.375,-10.40625 0.0937,-0.1875 6.40625,-10.34375 0.125,-0.21875 6.40625,-10.1875 0.125,-0.21875 0.0312,-0.0625 -8.9375,-5.59375 -75.5625,-47.90625 z m 684.03125,219.7187 1.5,2.3126 0.094,0.1874 0.125,0.1876 3.375,5.1874 0.125,0.1876 0.125,0.1562 3.4374,5.1562 0.125,0.1876 0.125,0.2187 3.5,5.125 0.125,0.1875 0.125,0.1875 3.5626,5.0937 0.125,0.2188 0.1562,0.1875 3.5938,5.0937 0.125,0.1876 0.1562,0.2187 3.6562,5.0313 0.1563,0.2187 0.1563,0.2187 3.6874,5 0.1563,0.2188 0.1563,0.2188 3.7812,4.9687 0.1562,0.2187 0.1563,0.2188 3.8437,4.9375 0.1563,0.2187 0.1875,0.2188 3.875,4.9375 0.1875,0.2187 0.1875,0.2188 3.9375,4.875 0.1875,0.2188 0.1875,0.2187 4,4.8437 0.2187,0.25 0.1876,0.2188 4.0624,4.8125 0.2188,0.2187 0.1875,0.25 4.1563,4.75 0.1874,0.25 0.2188,0.2188 4.2188,4.7188 0.2187,0.25 0.2187,0.2187 4.2813,4.6875 0.2187,0.25 0.2188,0.2188 4.3438,4.6562 0.25,0.2188 0.2187,0.25 4.4375,4.5937 0.2188,0.2187 0.25,0.25 4.5,4.5313 0.25,0.25 0.25,0.25 4.5624,4.5 0.2188,0.1875 0.1875,0.1875 4.625,4.4375 0.1563,0.1562 0.1562,0.1563 4.625,4.3437 0.1562,0.1563 0.1563,0.1563 4.625,4.2812 0.1563,0.1562 0.1562,0.125 4.625,4.2188 0.1562,0.1562 0.1876,0.125 4.625,4.1563 0.1562,0.125 0.1562,0.1563 4.625,4.0624 0.1563,0.1563 0.1563,0.125 4.625,4 0.1874,0.1563 0.1563,0.125 4.625,3.9374 0.1563,0.125 0.1562,0.1563 4.625,3.8437 0.1875,0.125 0.1563,0.1563 4.625,3.7813 0.1562,0.125 0.1562,0.1562 4.625,3.7188 0.1563,0.125 0.1875,0.125 2.9688,2.375 62.0624,-78.4063 -2.625,-2.0937 -0.3437,-0.2813 -3.9375,-3.1563 -0.25,-0.1874 -0.094,-0.094 -3.9374,-3.25 -0.3438,-0.2812 -3.9688,-3.2813 -0.3124,-0.2813 -3.9688,-3.375 -0.3438,-0.2812 -3.9687,-3.4375 -0.3125,-0.2813 -3.9688,-3.5 -0.3437,-0.2812 -3.9687,-3.5625 -0.125,-0.125 -0.1876,-0.1563 -4,-3.625 -0.3124,-0.3124 -4,-3.6876 -0.3126,-0.2812 -4,-3.7812 -0.3124,-0.3126 -3.9063,-3.7187 -0.4063,-0.4063 -3.6874,-3.625 -0.3126,-0.3124 -0.1562,-0.1563 -3.5625,-3.5937 -0.4687,-0.4688 -3.5,-3.6562 L 1586,1105 l -3.4688,-3.6875 -0.1562,-0.1875 -0.2812,-0.2812 -3.4063,-3.7188 -0.4375,-0.5 -3.375,-3.7812 -0.4062,-0.4688 -3.3438,-3.8125 -0.125,-0.1563 -0.2812,-0.3124 -3.2813,-3.875 -0.4063,-0.4688 -3.25,-3.9375 -0.375,-0.4375 -3.2187,-4 -0.3437,-0.4375 -3.1876,-4.0313 -0.125,-0.1562 -0.2187,-0.2812 -3.1563,-4.0626 -0.3437,-0.4374 -3.125,-4.125 -0.3125,-0.4376 -3.0625,-4.1562 -0.3125,-0.4375 -3.0625,-4.2187 -0.2813,-0.4063 -3.0312,-4.25 -0.2812,-0.4063 -2.9688,-4.3124 -0.2812,-0.375 -2.9688,-4.375 -0.1875,-0.2813 -0.062,-0.094 -3.1562,-4.7813 -0.031,0 -2.875,-4.4375 -1.5,-2.3125 z m -848.03125,26.2188 -2.96875,3.2188 -0.40625,0.4374 -2.96875,3.0938 -0.4375,0.4688 -3.40625,3.4687 -2.90625,2.9375 -0.5,0.4688 -2.90625,2.8437 -0.5,0.5 -2.9375,2.75 -0.125,0.094 -0.375,0.375 -2.90625,2.6563 -0.5625,0.5 -2.84375,2.5625 -0.0625,0.062 -0.53125,0.4687 -6.84375,5.875 -0.25,0.1876 -0.375,0.3437 -6.78125,5.6563 -0.53125,0.4062 -0.125,0.125 -6.78125,5.4688 -0.65625,0.5 -6.75,5.2812 -0.375,0.2812 L 536,1158 l -6.75,5.0625 -0.65625,0.4687 -0.0312,0.031 -6.71875,4.875 -0.6875,0.5 -6.71875,4.6875 -0.5625,0.375 -0.125,0.094 -6.6875,4.5312 -0.6875,0.4688 -6.6875,4.3437 -0.4375,0.2813 -0.25,0.1562 -6.65625,4.1875 -0.65625,0.4063 -0.0625,0.031 -6.625,4.0312 -0.46875,0.2813 -0.21875,0.125 -6.625,3.875 -0.625,0.3437 -0.0937,0.063 -6.5625,3.6874 -0.71875,0.4063 -6.5625,3.5313 -0.6875,0.375 -6.5625,3.4062 -4.40625,2.2188 44.8125,89.4062 4.40625,-2.2188 0.34375,-0.1874 0.375,-0.1563 7.9375,-4.1563 0.34375,-0.1874 0.34375,-0.1876 7.96875,-4.3124 0.34375,-0.1876 0.375,-0.1874 7.96875,-4.5 0.375,-0.1876 0.34375,-0.2187 8,-4.6875 0.375,-0.1875 0.34375,-0.2187 8.03125,-4.875 0.34375,-0.2188 0.34375,-0.2188 8.0625,-5.0624 0.34375,-0.2188 0.34375,-0.2188 8.0625,-5.25 0.34375,-0.2187 0.34375,-0.25 8.09375,-5.4375 0.34375,-0.25 0.3125,-0.2188 8.09375,-5.6562 0.34375,-0.25 0.34375,-0.25 8.09375,-5.8438 0.3125,-0.25 0.34375,-0.25 8.09375,-6.0937 0.34375,-0.25 0.3125,-0.25 8.09375,-6.2813 0.34375,-0.2812 0.3125,-0.25 8.09375,-6.5 0.3125,-0.2812 0.34375,-0.2813 8.0625,-6.7187 0.34375,-0.2813 0.3125,-0.25 8.0625,-6.9687 0.3125,-0.25 0.28125,-0.2813 4.03125,-3.5625 0.25,-0.25 0.28125,-0.25 3.96875,-3.6562 0.28125,-0.25 0.25,-0.25 3.96875,-3.7188 0.25,-0.25 0.25,-0.25 3.90625,-3.7812 0.25,-0.25 0.21875,-0.2188 3.875,-3.875 0.25,-0.2188 0.21875,-0.25 3.84375,-3.9374 0.21875,-0.2188 0.21875,-0.25 3.8125,-4 0.21875,-0.2188 0.1875,-0.2187 3.78125,-4.0625 0.21875,-0.2188 0.1875,-0.2187 3.28125,-3.625 -74.09375,-67.1563 z m 1118.25005,130.2812 -36.0626,62.625 0.3126,0.1876 0.3437,0.1874 0.375,0.2188 8.8125,4.875 0.3438,0.1875 0.375,0.1875 8.7187,4.6562 0.375,0.2188 0.3437,0.1562 8.6563,4.4688 0.375,0.1875 0.3437,0.1563 8.5938,4.25 0.3438,0.1562 0.375,0.1875 8.5,4.0313 0.3437,0.1562 0.375,0.1562 8.4063,3.8438 0.375,0.1562 0.3437,0.1563 8.3125,3.625 0.375,0.1563 0.3438,0.1562 8.2187,3.4375 0.375,0.1563 0.3437,0.125 8.125,3.2812 0.3438,0.125 0.3438,0.125 8.0312,3.0938 0.3438,0.125 0.3437,0.125 7.9375,2.9062 0.3125,0.125 0.3437,0.125 7.8126,2.75 0.3437,0.125 0.3437,0.094 7.6876,2.5937 0.3124,0.094 0.3438,0.125 7.5625,2.4063 0.3437,0.094 0.3126,0.094 7.4374,2.2812 0.3126,0.094 0.3437,0.094 7.2813,2.0937 0.3437,0.094 0.3125,0.094 7.1562,1.9688 0.3126,0.094 0.3437,0.094 7,1.8126 0.3125,0.094 0.3125,0.062 6.875,1.6875 0.3125,0.094 0.3125,0.063 6.7187,1.5624 0.3126,0.063 0.3124,0.062 6.5313,1.4376 0.3125,0.094 0.3125,0.062 6.375,1.3125 0.3125,0.062 0.2812,0.062 6.2188,1.1875 0.3125,0.062 0.3125,0.062 6.0312,1.0625 0.2813,0.062 0.3125,0.062 3.7812,0.625 16.5938,-98.5937 -3.1875,-0.5626 -0.5937,-0.094 -4.875,-0.875 -0.5938,-0.125 -5,-0.9375 0,-0.031 -6.375,-1.3126 0,0.031 -5.3125,-1.1875 -6.0937,-1.4062 -0.625,-0.1563 -5.5938,-1.375 -0.6562,-0.1563 -5.7188,-1.5 -0.625,-0.1562 -5.875,-1.625 -0.5625,-0.1562 -0.094,-0.031 -5.9688,-1.7187 -0.6562,-0.1876 -6.125,-1.875 -6.875,-2.1874 -0.6876,-0.2188 -6.3437,-2.125 -0.6563,-0.2188 -6.4374,-2.25 -0.4688,-0.1874 -0.2188,-0.063 -7.25,-2.6874 -6.6562,-2.5313 -0.6875,-0.2813 -6.75,-2.7187 -0.2813,-0.125 -0.4062,-0.1563 -6.8438,-2.8437 -0.5937,-0.25 -0.125,-0.062 -6.9063,-3.0312 -0.7187,-0.3126 -7.0313,-3.1874 -0.094,-0.031 -0.5937,-0.2813 -7.0938,-3.375 -0.1562,-0.062 -0.5626,-0.2813 -7.875,-3.9063 -7.25,-3.7187 -0.25,-0.125 -0.4687,-0.25 -7.3437,-3.9063 -0.4376,-0.25 -0.25,-0.125 -7.4062,-4.0937 -0.1875,-0.125 -0.125,-0.062 -0.4063,-0.2188 z m -1346.12505,7.625 -0.625,0.1876 -6,1.6874 -0.625,0.1876 -5.9375,1.5937 -0.625,0.1563 -6.46875,1.6562 0,0.031 -5.84375,1.4063 -0.59375,0.125 -5.78125,1.3437 -0.40625,0.094 -0.15625,0.031 -5.71875,1.25 -0.5625,0.125 -6.21875,1.25 -5.59375,1.0938 -0.53125,0.094 -5.53125,1 -0.28125,0.062 -0.25,0.031 -5.4375,0.9375 -0.53125,0.094 -5.375,0.8437 -0.5,0.094 -5.3125,0.7813 -5.71875,0.8125 -0.5,0.062 -5.125,0.6563 -0.46875,0.062 -5.53125,0.6563 -4.78125,0.5313 -0.65625,0.062 -9.96875,1 -0.78125,0.063 -9.40625,0.75 -0.71875,0.062 -9.0625,0.5938 -0.65625,0.031 -8.6875,0.4688 -0.5625,0.031 -8.3125,0.3438 -8.375,0.2812 -0.40625,0 -15.3125,0.375 -0.0312,0 -13.15625,0.3438 2.46875,99.9688 13.15625,-0.3438 0.0312,0 15.6875,-0.375 0.21875,0 0.21875,0 8.78125,-0.3125 0.21875,0 0.21875,0 9.375,-0.4063 0.28125,0 0.28125,-0.031 9.875,-0.5 0.34375,-0.031 0.3125,-0.031 10.4375,-0.6875 0.375,-0.031 0.34375,-0.031 10.9375,-0.875 0.40625,-0.031 0.40625,-0.031 11.40625,-1.125 0.3125,-0.031 0.34375,-0.031 5.875,-0.6563 0.21875,-0.031 0.21875,0 6,-0.7188 0.21875,-0.031 0.25,-0.031 6.09375,-0.7813 0.25,-0.031 0.25,-0.062 6.1875,-0.8438 0.25,-0.031 0.25,-0.031 6.3125,-0.9687 0.25,-0.031 0.25,-0.031 6.40625,-1.0312 0.28125,-0.031 0.25,-0.063 6.5,-1.0937 0.28125,-0.062 0.25,-0.031 6.625,-1.2188 0.25,-0.031 0.28125,-0.063 6.6875,-1.3124 0.28125,-0.031 0.28125,-0.062 6.78125,-1.4062 0.28125,-0.063 0.3125,-0.062 6.84375,-1.4688 0.3125,-0.062 0.28125,-0.094 6.9375,-1.5938 0.3125,-0.062 0.28125,-0.062 7.03125,-1.7188 0.3125,-0.062 0.28125,-0.094 7.125,-1.8125 0.3125,-0.094 0.3125,-0.063 7.15625,-1.9374 0.3125,-0.094 0.3125,-0.094 7.25,-2.0624 0.3125,-0.094 0.34375,-0.094 2.0625,-0.625 -28.5625,-95.8124 z"
     id="path2825" />
</svg>
