<?xml version="1.0" encoding="UTF-8" standalone="no"?>
<svg
   xmlns:dc="http://purl.org/dc/elements/1.1/"
   xmlns:cc="http://creativecommons.org/ns#"
   xmlns:rdf="http://www.w3.org/1999/02/22-rdf-syntax-ns#"
   xmlns:svg="http://www.w3.org/2000/svg"
   xmlns="http://www.w3.org/2000/svg"
   xmlns:sodipodi="http://sodipodi.sourceforge.net/DTD/sodipodi-0.dtd"
   xmlns:inkscape="http://www.inkscape.org/namespaces/inkscape"
   width="2048"
   height="1792"
   viewBox="0 0 2048 1792"
   id="svg2"
   version="1.1"
   inkscape:version="0.47 r22583"
   sodipodi:docname="scatter-plot-with-bar.svg">
  <metadata
     id="metadata10">
    <rdf:RDF>
      <cc:Work
         rdf:about="">
        <dc:format>image/svg+xml</dc:format>
        <dc:type
           rdf:resource="http://purl.org/dc/dcmitype/StillImage" />
        <dc:title></dc:title>
      </cc:Work>
    </rdf:RDF>
  </metadata>
  <defs
     id="defs8">
    <inkscape:perspective
       sodipodi:type="inkscape:persp3d"
       inkscape:vp_x="0 : 896 : 1"
       inkscape:vp_y="0 : 1000 : 0"
       inkscape:vp_z="2048 : 896 : 1"
       inkscape:persp3d-origin="1024 : 597.33333 : 1"
       id="perspective12" />
    <inkscape:perspective
       id="perspective2830"
       inkscape:persp3d-origin="0.5 : 0.33333333 : 1"
       inkscape:vp_z="1 : 0.5 : 1"
       inkscape:vp_y="0 : 1000 : 0"
       inkscape:vp_x="0 : 0.5 : 1"
       sodipodi:type="inkscape:persp3d" />
    <inkscape:perspective
       id="perspective2858"
       inkscape:persp3d-origin="0.5 : 0.33333333 : 1"
       inkscape:vp_z="1 : 0.5 : 1"
       inkscape:vp_y="0 : 1000 : 0"
       inkscape:vp_x="0 : 0.5 : 1"
       sodipodi:type="inkscape:persp3d" />
    <inkscape:perspective
       id="perspective2858-6"
       inkscape:persp3d-origin="0.5 : 0.33333333 : 1"
       inkscape:vp_z="1 : 0.5 : 1"
       inkscape:vp_y="0 : 1000 : 0"
       inkscape:vp_x="0 : 0.5 : 1"
       sodipodi:type="inkscape:persp3d" />
    <inkscape:perspective
       id="perspective2858-3"
       inkscape:persp3d-origin="0.5 : 0.33333333 : 1"
       inkscape:vp_z="1 : 0.5 : 1"
       inkscape:vp_y="0 : 1000 : 0"
       inkscape:vp_x="0 : 0.5 : 1"
       sodipodi:type="inkscape:persp3d" />
    <inkscape:perspective
       id="perspective3670"
       inkscape:persp3d-origin="0.5 : 0.33333333 : 1"
       inkscape:vp_z="1 : 0.5 : 1"
       inkscape:vp_y="0 : 1000 : 0"
       inkscape:vp_x="0 : 0.5 : 1"
       sodipodi:type="inkscape:persp3d" />
    <inkscape:perspective
       id="perspective3670-4"
       inkscape:persp3d-origin="0.5 : 0.33333333 : 1"
       inkscape:vp_z="1 : 0.5 : 1"
       inkscape:vp_y="0 : 1000 : 0"
       inkscape:vp_x="0 : 0.5 : 1"
       sodipodi:type="inkscape:persp3d" />
    <inkscape:perspective
       id="perspective3701"
       inkscape:persp3d-origin="0.5 : 0.33333333 : 1"
       inkscape:vp_z="1 : 0.5 : 1"
       inkscape:vp_y="0 : 1000 : 0"
       inkscape:vp_x="0 : 0.5 : 1"
       sodipodi:type="inkscape:persp3d" />
    <inkscape:perspective
       id="perspective2954"
       inkscape:persp3d-origin="0.5 : 0.33333333 : 1"
       inkscape:vp_z="1 : 0.5 : 1"
       inkscape:vp_y="0 : 1000 : 0"
       inkscape:vp_x="0 : 0.5 : 1"
       sodipodi:type="inkscape:persp3d" />
    <inkscape:perspective
       id="perspective2954-7"
       inkscape:persp3d-origin="0.5 : 0.33333333 : 1"
       inkscape:vp_z="1 : 0.5 : 1"
       inkscape:vp_y="0 : 1000 : 0"
       inkscape:vp_x="0 : 0.5 : 1"
       sodipodi:type="inkscape:persp3d" />
    <inkscape:perspective
       id="perspective2954-0"
       inkscape:persp3d-origin="0.5 : 0.33333333 : 1"
       inkscape:vp_z="1 : 0.5 : 1"
       inkscape:vp_y="0 : 1000 : 0"
       inkscape:vp_x="0 : 0.5 : 1"
       sodipodi:type="inkscape:persp3d" />
    <inkscape:perspective
       id="perspective2954-3"
       inkscape:persp3d-origin="0.5 : 0.33333333 : 1"
       inkscape:vp_z="1 : 0.5 : 1"
       inkscape:vp_y="0 : 1000 : 0"
       inkscape:vp_x="0 : 0.5 : 1"
       sodipodi:type="inkscape:persp3d" />
  </defs>
  <sodipodi:namedview
     pagecolor="#ffffff"
     bordercolor="#666666"
     borderopacity="1"
     objecttolerance="10"
     gridtolerance="10"
     guidetolerance="10"
     inkscape:pageopacity="0"
     inkscape:pageshadow="2"
     inkscape:window-width="1207"
     inkscape:window-height="828"
     id="namedview6"
     showgrid="false"
     inkscape:zoom="0.38832685"
     inkscape:cx="1429.7404"
     inkscape:cy="947.59042"
     inkscape:window-x="405"
     inkscape:window-y="135"
     inkscape:window-maximized="0"
     inkscape:current-layer="svg2" />
  <path
     d="m 1663.5938,115.09375 c -71.2754,0.23402 -128.9322,58.09923 -128.9063,129.375 0.026,71.42323 57.9518,129.30715 129.375,129.28125 71.4232,-0.0259 129.3071,-57.95177 129.2813,-129.375 -0.026,-71.42323 -57.9519,-129.30715 -129.375,-129.28125 l -0.375,0 z M 0,128 l 0,1536 2048,0 0,-128 -1920,0 0,-1408 -128,0 z m 168.0342,937.6807 c 0,0 65.73735,156.3893 65.73735,156.3893 L 2038.2553,481.8415 1969.9428,325.45235 168.0342,1065.6807 z m 910.9346,-580.64945 c -71.2754,0.23402 -128.93215,58.09923 -128.9063,129.375 0.0259,71.42323 57.9518,129.30715 129.375,129.28125 71.4232,-0.0259 129.3072,-57.95177 129.2813,-129.375 -0.026,-71.42323 -57.9519,-129.30715 -129.375,-129.28125 l -0.375,0 z M 565.375,551.75 c -71.27539,0.23402 -128.9321,58.09923 -128.90625,129.375 0.0259,71.42323 57.95177,129.30715 129.375,129.28125 71.42323,-0.0259 129.30715,-57.95177 129.28125,-129.375 C 695.0991,609.60802 637.17323,551.7241 565.75,551.75 l -0.375,0 z m 925.5,232.84375 c -71.2754,0.23402 -128.9322,58.09923 -128.9062,129.375 0.026,71.42323 57.9517,129.30715 129.375,129.28125 71.4231,-0.026 129.3071,-57.95177 129.2812,-129.375 -0.026,-71.42323 -57.9518,-129.30715 -129.375,-129.28125 l -0.375,0 z M 688.75,1107.75 c -71.27539,0.234 -128.9321,58.0992 -128.90625,129.375 0.0259,71.4232 57.95177,129.3072 129.375,129.2812 71.42323,-0.026 129.30715,-57.9516 129.28125,-129.375 -0.0259,-71.4231 -57.95177,-129.3071 -129.375,-129.2812 l -0.375,0 z"
     id="path4"
     sodipodi:nodetypes="cssccccccccccccccccssccccssscccssscccssscc" />
</svg>
