<?xml version="1.0" encoding="UTF-8" standalone="no"?>
<svg
   xmlns:dc="http://purl.org/dc/elements/1.1/"
   xmlns:cc="http://creativecommons.org/ns#"
   xmlns:rdf="http://www.w3.org/1999/02/22-rdf-syntax-ns#"
   xmlns:svg="http://www.w3.org/2000/svg"
   xmlns="http://www.w3.org/2000/svg"
   xmlns:sodipodi="http://sodipodi.sourceforge.net/DTD/sodipodi-0.dtd"
   xmlns:inkscape="http://www.inkscape.org/namespaces/inkscape"
   width="1792"
   height="1792"
   viewBox="0 0 1792 1792"
   id="svg2"
   version="1.1"
   inkscape:version="0.47 r22583"
   sodipodi:docname="timeline.svg">
  <metadata
     id="metadata10">
    <rdf:RDF>
      <cc:Work
         rdf:about="">
        <dc:format>image/svg+xml</dc:format>
        <dc:type
           rdf:resource="http://purl.org/dc/dcmitype/StillImage" />
      </cc:Work>
    </rdf:RDF>
  </metadata>
  <defs
     id="defs8">
    <inkscape:perspective
       sodipodi:type="inkscape:persp3d"
       inkscape:vp_x="0 : 896 : 1"
       inkscape:vp_y="0 : 1000 : 0"
       inkscape:vp_z="1792 : 896 : 1"
       inkscape:persp3d-origin="896 : 597.33333 : 1"
       id="perspective12" />
    <inkscape:perspective
       id="perspective2850"
       inkscape:persp3d-origin="0.5 : 0.33333333 : 1"
       inkscape:vp_z="1 : 0.5 : 1"
       inkscape:vp_y="0 : 1000 : 0"
       inkscape:vp_x="0 : 0.5 : 1"
       sodipodi:type="inkscape:persp3d" />
    <inkscape:perspective
       id="perspective2874"
       inkscape:persp3d-origin="0.5 : 0.33333333 : 1"
       inkscape:vp_z="1 : 0.5 : 1"
       inkscape:vp_y="0 : 1000 : 0"
       inkscape:vp_x="0 : 0.5 : 1"
       sodipodi:type="inkscape:persp3d" />
    <inkscape:perspective
       id="perspective2897"
       inkscape:persp3d-origin="0.5 : 0.33333333 : 1"
       inkscape:vp_z="1 : 0.5 : 1"
       inkscape:vp_y="0 : 1000 : 0"
       inkscape:vp_x="0 : 0.5 : 1"
       sodipodi:type="inkscape:persp3d" />
  </defs>
  <sodipodi:namedview
     pagecolor="#ffffff"
     bordercolor="#666666"
     borderopacity="1"
     objecttolerance="10"
     gridtolerance="10"
     guidetolerance="10"
     inkscape:pageopacity="0"
     inkscape:pageshadow="2"
     inkscape:window-width="1120"
     inkscape:window-height="743"
     id="namedview6"
     showgrid="false"
     inkscape:zoom="0.14519531"
     inkscape:cx="1313.6764"
     inkscape:cy="1441.2442"
     inkscape:window-x="583"
     inkscape:window-y="40"
     inkscape:window-maximized="0"
     inkscape:current-layer="svg2" />
  <path
     d="M 64,128 C 46.666667,128 31.666667,134.33333 19,147 6.3333333,159.66667 0,174.66667 0,192 l 0,256 c 0,17.33333 6.3333333,32.33333 19,45 12.666667,12.66667 27.666667,19 45,19 l 1664,0 c 17.3333,0 32.3333,-6.33333 45,-19 12.6667,-12.66667 19,-27.66667 19,-45 l 0,-256 c 0,-17.33333 -6.3333,-32.33333 -19,-45 -12.6667,-12.66667 -27.6667,-19 -45,-19 L 64,128 z m 85.9375,122.84375 375.03125,0 c 0.22145,0 194.40625,0.1848 194.40625,0.40625 l 0,127.5625 c 0,0.22145 -194.1848,0.375 -194.40625,0.375 l -375.03125,0 c -0.22145,0 -0.40625,-0.15355 -0.40625,-0.375 l 0,-127.5625 c 0,-0.22145 0.1848,-0.40625 0.40625,-0.40625 z M 1474,256 l 190,0 0,128 -190,0 0,-128 z M 64,640 C 46.666667,640 31.666667,646.33333 19,659 6.3333333,671.66667 0,686.66667 0,704 l 0,256 c 0,17.33333 6.3333333,32.33333 19,45 12.666667,12.6667 27.666667,19 45,19 l 1664,0 c 17.3333,0 32.3333,-6.3333 45,-19 12.6667,-12.66667 19,-27.66667 19,-45 l 0,-256 c 0,-17.33333 -6.3333,-32.33333 -19,-45 -12.6667,-12.66667 -27.6667,-19 -45,-19 L 64,640 z m 916,128 684,0 0,128 -684,0 0,-128 z m -849.09375,0.8125 C 170.9752,771.93941 295.40048,764.468 335,769.21875 l 0,127.5625 -204.09375,0.40625 c -0.22145,0 -0.40625,-0.1848 -0.40625,-0.40625 l 0,-127.5625 c 0,-0.22145 0.1848,-0.40625 0.40625,-0.40625 z M 64,1152 c -17.333333,0 -32.333333,6.3333 -45,19 -12.6666667,12.6667 -19,27.6667 -19,45 l 0,256 c 0,17.3333 6.3333333,32.3333 19,45 12.666667,12.6667 27.666667,19 45,19 l 1664,0 c 17.3333,0 32.3333,-6.3333 45,-19 12.6667,-12.6667 19,-27.6667 19,-45 l 0,-256 c 0,-17.3333 -6.3333,-32.3333 -19,-45 -12.6667,-12.6667 -27.6667,-19 -45,-19 l -1664,0 z m 62.96875,126.625 c 112.55283,-0.1545 327.10427,0.01 439.65625,0.375 0,0 -0.40625,127.9688 -0.40625,127.9688 l -439.25,0 c -0.22145,0 -0.40625,-0.1849 -0.40625,-0.4063 l 0,-127.5625 c 0,-0.2214 0.1848,-0.375 0.40625,-0.375 z M 1240,1280 l 424,0 0,128 -424,0 0,-128 z"
     id="path4"
     sodipodi:nodetypes="csccsccsccscccccccccccccccccsccsccsccscccccccccccccccsccsccsccscccccccccccccc" />
</svg>
